<svg id="Layer_1" data-name="Layer 1" xmlns="http://www.w3.org/2000/svg" viewBox="0 0 1200 360"><title>RootLogo-RGB-Artboard 3</title><path d="M353.08,0H6.92A6.92,6.92,0,0,0,0,6.92V353.08A6.92,6.92,0,0,0,6.92,360H20.77a6.92,6.92,0,0,0,6.92-6.92V27.69H332.31V317.26l-81.88-81.88h33.42a6.92,6.92,0,0,0,6.92-6.92V76.15a6.92,6.92,0,0,0-6.92-6.92H76.15a6.92,6.92,0,0,0-6.92,6.92V353.08A6.92,6.92,0,0,0,76.15,360H90a6.92,6.92,0,0,0,6.92-6.92V96.92H263.08V207.69H214.62a6.93,6.93,0,0,0-6.93,6.93v13.84c0,3.35,1.74,5.08,3.58,6.92L328.93,353.05c2.87,2.86,6.79,6.95,10.25,6.95h13.9a6.92,6.92,0,0,0,6.92-6.92V6.92A6.92,6.92,0,0,0,353.08,0ZM166.15,251.89V166.15h17.58a27.69,27.69,0,1,0,0-27.69H145.38a6.92,6.92,0,0,0-6.92,6.92V256.32c0,7.19,1.09,8.12,3.38,10.41L233.09,358a6.88,6.88,0,0,0,4.5,2h23.76a5.19,5.19,0,0,0,5.19-5.19c0-2.45-1.67-4.12-3.42-5.87Z" style="fill:#4078fa"/><path d="M630.43,100.22a39.6,39.6,0,0,0-14-6c-17-3.34-30.73-.23-41.34,6.61a51.32,51.32,0,0,0-10.37,8.86v-7.65a5.12,5.12,0,0,0-5-5.19h-28.6a5.11,5.11,0,0,0-5,5.19V257.8a5.12,5.12,0,0,0,5,5.21H561.1a5.12,5.12,0,0,0,5-5.21V176.43a79.84,79.84,0,0,1,2-18.24,48.68,48.68,0,0,1,6.12-14.79,29.64,29.64,0,0,1,9.9-9.69c8.08-4.8,19.25-4.8,32,1.18a5,5,0,0,0,4,.1,5.22,5.22,0,0,0,2.76-3l9.54-25.5A5.27,5.27,0,0,0,630.43,100.22Zm555.33,128.09h-20.42c-6.74,0-11.66-1.3-14.28-3.84s-3.85-7.18-3.85-13.91V130.21h38.54v0a5.1,5.1,0,0,0,5-5.2v-23a5.11,5.11,0,0,0-5-5.18H1147.2V54.82a5.11,5.11,0,0,0-5-5.2h-30a5.11,5.11,0,0,0-5,5.2V96.87H1081a5.11,5.11,0,0,0-5,5.18v23a5.1,5.1,0,0,0,5,5.2h26.28v82.9c0,16.81,4.72,29.53,14,37.76,9.07,8,22.53,12.1,40,12.1h24.49a5.12,5.12,0,0,0,5-5.21V233.52A5.12,5.12,0,0,0,1185.76,228.31ZM806.06,116.67a77.07,77.07,0,0,0-27.61-17.55A99.22,99.22,0,0,0,742.88,93a96.17,96.17,0,0,0-34.75,6.08,77.17,77.17,0,0,0-27.4,17.55,81.94,81.94,0,0,0-18,27.58,95,95,0,0,0-6.49,35.67c0,13.19,2,25.17,5.93,35.69a76.27,76.27,0,0,0,17.52,27.59,78.22,78.22,0,0,0,27.44,17.55c10.47,4.06,22.52,6.08,35.76,6.08a96.12,96.12,0,0,0,34.55-6.08A77.69,77.69,0,0,0,805,243.2a82.14,82.14,0,0,0,18-27.43c4.33-10.57,6.53-22.6,6.53-35.85a102.42,102.42,0,0,0-5.93-35.53A75.83,75.83,0,0,0,806.06,116.67Zm-21.28,85.06a48.82,48.82,0,0,1-9.36,16.3,41.63,41.63,0,0,1-14.13,10.42c-10.94,4.94-25.89,4.94-37,0A41.55,41.55,0,0,1,710,218.06a47.33,47.33,0,0,1-9.16-16.27,73.65,73.65,0,0,1,0-43.63A46.66,46.66,0,0,1,710,141.8a41.42,41.42,0,0,1,14.26-10.39,46,46,0,0,1,18.64-3.75c13.68,0,24.4,4.45,32.78,13.56s12.57,22.1,12.57,38.7A64.36,64.36,0,0,1,784.78,201.73Zm235-85.06a77.46,77.46,0,0,0-27.62-17.55A99.29,99.29,0,0,0,956.58,93a96.07,96.07,0,0,0-34.76,6.08,77.61,77.61,0,0,0-27.42,17.55,82,82,0,0,0-18,27.58,95,95,0,0,0-6.5,35.67c0,13.17,2,25.14,6,35.69a76,76,0,0,0,17.53,27.59,78.23,78.23,0,0,0,27.42,17.55c10.5,4.06,22.53,6.08,35.77,6.08a96,96,0,0,0,34.54-6.08,78,78,0,0,0,27.63-17.58,82.44,82.44,0,0,0,18-27.4c4.32-10.6,6.51-22.63,6.51-35.85a102.42,102.42,0,0,0-5.93-35.53A76.31,76.31,0,0,0,1019.77,116.67Zm-21.3,85.06a49.48,49.48,0,0,1-9.38,16.33A41.61,41.61,0,0,1,975,228.45c-11,4.94-25.88,4.94-37,0a41.36,41.36,0,0,1-14.26-10.39,47.42,47.42,0,0,1-9.16-16.25,68.21,68.21,0,0,1-3.29-21.89,68.94,68.94,0,0,1,3.29-21.76,47.24,47.24,0,0,1,9.15-16.36,41.36,41.36,0,0,1,14.27-10.39,46,46,0,0,1,18.64-3.75c13.67,0,24.4,4.45,32.77,13.56s12.57,22.09,12.57,38.7A64.7,64.7,0,0,1,998.47,201.73Z" style="fill:#0f1b4a"/></svg>